<mxfile modified="2024-02-12T06:14:12.239Z" host="app.diagrams.net" agent="Mozilla/5.0 (Windows NT 10.0; Win64; x64) AppleWebKit/537.36 (KHTML, like Gecko) Chrome/121.0.0.0 Safari/537.36" etag="7dDUq6AO0YqC1huNNhda" version="23.1.2" type="github">
  <diagram id="Ht1M8jgEwFfnCIfOTk4-" name="Page-1">
    <mxGraphModel dx="1687" dy="908" grid="1" gridSize="10" guides="1" tooltips="1" connect="1" arrows="1" fold="1" page="1" pageScale="1" pageWidth="1169" pageHeight="827" math="0" shadow="0">
      <root>
        <object label="" id="0">
          <mxCell />
        </object>
        <mxCell id="1" parent="0" />
        <mxCell id="-QjtrjUzRDEMRZ5MF8oH-47" value="Gradle Publish Sample" style="text;html=1;resizable=0;points=[];autosize=1;align=left;verticalAlign=top;spacingTop=-4;fontSize=30;fontStyle=1" parent="1" vertex="1">
          <mxGeometry x="56.5" y="64.5" width="350" height="40" as="geometry" />
        </mxCell>
        <mxCell id="94AfbnYl2xBeeJejULuf-10" value="" style="edgeStyle=orthogonalEdgeStyle;rounded=0;orthogonalLoop=1;jettySize=auto;html=1;" edge="1" parent="1">
          <mxGeometry relative="1" as="geometry">
            <mxPoint x="318.5" y="254" as="sourcePoint" />
            <mxPoint x="394" y="254" as="targetPoint" />
          </mxGeometry>
        </mxCell>
        <mxCell id="94AfbnYl2xBeeJejULuf-11" value="" style="edgeStyle=orthogonalEdgeStyle;rounded=0;orthogonalLoop=1;jettySize=auto;html=1;" edge="1" parent="1" target="94AfbnYl2xBeeJejULuf-6">
          <mxGeometry relative="1" as="geometry">
            <mxPoint x="470.5" y="254.42857142857156" as="sourcePoint" />
          </mxGeometry>
        </mxCell>
        <mxCell id="94AfbnYl2xBeeJejULuf-6" value="" style="sketch=0;points=[[0,0,0],[0.25,0,0],[0.5,0,0],[0.75,0,0],[1,0,0],[0,1,0],[0.25,1,0],[0.5,1,0],[0.75,1,0],[1,1,0],[0,0.25,0],[0,0.5,0],[0,0.75,0],[1,0.25,0],[1,0.5,0],[1,0.75,0]];outlineConnect=0;fontColor=#232F3E;fillColor=#C925D1;strokeColor=#ffffff;dashed=0;verticalLabelPosition=bottom;verticalAlign=top;align=center;html=1;fontSize=12;fontStyle=0;aspect=fixed;shape=mxgraph.aws4.resourceIcon;resIcon=mxgraph.aws4.codeartifact;" vertex="1" parent="1">
          <mxGeometry x="528.5" y="215" width="78" height="78" as="geometry" />
        </mxCell>
        <mxCell id="SCVMTBWpLvtzJIhz15lM-2" value="GitHub" style="text;resizable=0;points=[];autosize=1;align=left;verticalAlign=top;spacingTop=-4;fontSize=20;fontStyle=1;html=1;labelBackgroundColor=default;" parent="1" vertex="1">
          <mxGeometry x="90" y="160" width="90" height="30" as="geometry" />
        </mxCell>
        <mxCell id="94AfbnYl2xBeeJejULuf-14" value="CodePipeline" style="text;resizable=0;points=[];autosize=1;align=left;verticalAlign=top;spacingTop=-4;fontSize=20;fontStyle=1;html=1;labelBackgroundColor=default;" vertex="1" parent="1">
          <mxGeometry x="223.5" y="160" width="150" height="30" as="geometry" />
        </mxCell>
        <mxCell id="94AfbnYl2xBeeJejULuf-15" value="CodeBuild" style="text;resizable=0;points=[];autosize=1;align=left;verticalAlign=top;spacingTop=-4;fontSize=20;fontStyle=1;html=1;labelBackgroundColor=default;" vertex="1" parent="1">
          <mxGeometry x="373.5" y="160" width="120" height="30" as="geometry" />
        </mxCell>
        <mxCell id="94AfbnYl2xBeeJejULuf-16" value="CodeArtifact" style="text;resizable=0;points=[];autosize=1;align=left;verticalAlign=top;spacingTop=-4;fontSize=20;fontStyle=1;html=1;labelBackgroundColor=default;" vertex="1" parent="1">
          <mxGeometry x="503.5" y="160" width="140" height="30" as="geometry" />
        </mxCell>
        <mxCell id="94AfbnYl2xBeeJejULuf-17" value="" style="sketch=0;points=[[0,0,0],[0.25,0,0],[0.5,0,0],[0.75,0,0],[1,0,0],[0,1,0],[0.25,1,0],[0.5,1,0],[0.75,1,0],[1,1,0],[0,0.25,0],[0,0.5,0],[0,0.75,0],[1,0.25,0],[1,0.5,0],[1,0.75,0]];outlineConnect=0;fontColor=#232F3E;fillColor=#C925D1;strokeColor=#ffffff;dashed=0;verticalLabelPosition=bottom;verticalAlign=top;align=center;html=1;fontSize=12;fontStyle=0;aspect=fixed;shape=mxgraph.aws4.resourceIcon;resIcon=mxgraph.aws4.codepipeline;" vertex="1" parent="1">
          <mxGeometry x="245.75" y="215" width="78" height="78" as="geometry" />
        </mxCell>
        <mxCell id="94AfbnYl2xBeeJejULuf-20" value="" style="edgeStyle=orthogonalEdgeStyle;rounded=0;orthogonalLoop=1;jettySize=auto;html=1;" edge="1" parent="1" source="94AfbnYl2xBeeJejULuf-18" target="94AfbnYl2xBeeJejULuf-6">
          <mxGeometry relative="1" as="geometry" />
        </mxCell>
        <mxCell id="94AfbnYl2xBeeJejULuf-18" value="" style="sketch=0;points=[[0,0,0],[0.25,0,0],[0.5,0,0],[0.75,0,0],[1,0,0],[0,1,0],[0.25,1,0],[0.5,1,0],[0.75,1,0],[1,1,0],[0,0.25,0],[0,0.5,0],[0,0.75,0],[1,0.25,0],[1,0.5,0],[1,0.75,0]];outlineConnect=0;fontColor=#232F3E;fillColor=#C925D1;strokeColor=#ffffff;dashed=0;verticalLabelPosition=bottom;verticalAlign=top;align=center;html=1;fontSize=12;fontStyle=0;aspect=fixed;shape=mxgraph.aws4.resourceIcon;resIcon=mxgraph.aws4.codebuild;" vertex="1" parent="1">
          <mxGeometry x="389" y="215" width="78" height="78" as="geometry" />
        </mxCell>
        <mxCell id="94AfbnYl2xBeeJejULuf-23" value="" style="edgeStyle=orthogonalEdgeStyle;rounded=0;orthogonalLoop=1;jettySize=auto;html=1;" edge="1" parent="1" source="94AfbnYl2xBeeJejULuf-22" target="94AfbnYl2xBeeJejULuf-17">
          <mxGeometry relative="1" as="geometry" />
        </mxCell>
        <mxCell id="94AfbnYl2xBeeJejULuf-22" value="" style="dashed=0;outlineConnect=0;html=1;align=center;labelPosition=center;verticalLabelPosition=bottom;verticalAlign=top;shape=mxgraph.weblogos.github" vertex="1" parent="1">
          <mxGeometry x="90" y="216" width="75" height="75" as="geometry" />
        </mxCell>
      </root>
    </mxGraphModel>
  </diagram>
</mxfile>
